<svg width="50" height="50" viewBox="0 0 50 50" fill="none" xmlns="http://www.w3.org/2000/svg">
<path d="M25 50C38.8071 50 50 38.8071 50 25C50 11.1929 38.8071 0 25 0C11.1929 0 0 11.1929 0 25C0 38.8071 11.1929 50 25 50Z" fill="#DCF3FE"/>
<path fill-rule="evenodd" clip-rule="evenodd" d="M23.1352 31.8876L26.3529 27.3876L31.7558 23.6376L34.3125 23.1093L36.2683 23.3517L39.1494 25.4186L39.6515 29.0735L38.0984 33.5801L34.3125 37.761L30.3752 39.7251L28.2559 40.6051H26.0267L23.1352 39.7251L22.333 36.4626L22.6113 33.5801L23.1352 31.8876Z" fill="white"/>
<path fill-rule="evenodd" clip-rule="evenodd" d="M22.333 35.6416L27.3218 40.6051L29.7204 40.2126L22.6486 33.2622L22.333 35.6416Z" fill="#B9E8FE"/>
<path fill-rule="evenodd" clip-rule="evenodd" d="M32.3296 23.6376L39.1495 30.4251L39.6516 27.9873L34.7302 23.1093L32.3296 23.6376Z" fill="#B9E8FE"/>
<path d="M32.6012 23.1126C30.2439 23.675 27.7747 25.1375 25.8289 27.0876C23.9954 28.9251 22.6111 31.5124 22.0872 34.1376C21.6007 36.6501 21.9377 38.7876 22.9853 39.8376C23.7335 40.5876 24.9684 40.9627 26.5025 40.9627C27.1759 40.9627 27.9244 40.8876 28.6727 40.7377C31.2917 40.2128 33.8362 38.8627 35.707 36.9878C37.6521 35.0374 39.1114 32.5626 39.6728 30.2003C40.2715 27.6878 39.8972 25.5878 38.5502 24.2378C37.2032 22.8878 35.1079 22.5127 32.6011 23.1128L32.6012 23.1126ZM39.1491 27.3876L35.4075 23.6376C36.4924 23.7501 37.3906 24.1252 38.0266 24.8001C38.6626 25.4375 39.0369 26.3376 39.1491 27.3876ZM32.9006 23.8252C33.3871 23.7127 33.8733 23.6377 34.3225 23.6003L39.1867 28.4753C39.1494 28.9252 39.0745 29.4128 38.9622 29.9004L32.9006 23.8252ZM22.6111 36.4627L26.3527 40.2127C25.118 40.1753 24.1076 39.8753 23.5465 39.3126C22.9477 38.7503 22.6484 37.7376 22.6111 36.4627ZM28.5229 39.9878C28.1113 40.0628 27.737 40.1377 27.363 40.1753L22.6484 35.4502C22.6857 35.0751 22.7233 34.6626 22.8355 34.2878C22.8355 34.2127 22.8729 34.1379 22.9104 34.0628L28.8222 39.9878C28.7098 39.9504 28.5975 39.9878 28.5229 39.9878L28.5229 39.9878ZM35.183 36.4627C33.6865 37.9626 31.7034 39.1253 29.6079 39.7251L23.0973 33.2003C23.6961 31.1003 24.8559 29.1128 26.3525 27.6127C27.9989 25.9626 30.0568 24.6877 32.0399 24.0503L38.7 30.7253C38.1015 32.7501 36.8292 34.8127 35.1831 36.4628L35.183 36.4627Z" fill="#002B51"/>
<path d="M34.6221 28.1752C34.4725 28.0253 34.2478 28.0253 34.0983 28.1752L33.2002 29.0752L32.377 28.2502C32.2275 28.1003 32.0028 28.1003 31.8532 28.2502C31.7037 28.4001 31.7037 28.6253 31.8532 28.7752L32.6764 29.6002L32.003 30.2751L31.1799 29.4501C31.0303 29.3002 30.8056 29.3002 30.656 29.4501C30.5065 29.6 30.5065 29.8252 30.656 29.9751L31.4792 30.8001L30.8058 31.4749L29.9827 30.6499C29.8331 30.5 29.6084 30.5 29.4589 30.6499C29.3093 30.7998 29.3093 31.025 29.4589 31.1749L30.282 31.9999L29.6087 32.6748L28.7855 31.8498C28.636 31.6999 28.4112 31.6999 28.2617 31.8498C28.1121 31.9997 28.1121 32.2249 28.2617 32.3748L29.0848 33.1998L28.4115 33.8746L27.5883 33.0496C27.4388 32.8998 27.2141 32.8998 27.0645 33.0496C26.915 33.1995 26.915 33.4247 27.0645 33.5746L27.8877 34.3996L26.9896 35.2997C26.8401 35.4496 26.8401 35.6748 26.9896 35.8247C27.0645 35.8998 27.1767 35.9372 27.2516 35.9372C27.3266 35.9372 27.4388 35.8998 27.5137 35.8247L28.4118 34.9246L29.2349 35.7496C29.3098 35.8247 29.4221 35.8621 29.497 35.8621C29.5719 35.8621 29.6841 35.8247 29.759 35.7496C29.9086 35.5997 29.9086 35.3745 29.759 35.2246L28.9358 34.3996L29.6092 33.7248L30.4324 34.5498C30.5073 34.6248 30.6195 34.6622 30.6944 34.6622C30.7693 34.6622 30.8815 34.6248 30.9564 34.5498C31.106 34.3999 31.106 34.1747 30.9564 34.0248L30.1333 33.1998L30.8066 32.5249L31.6298 33.3499C31.7047 33.425 31.8169 33.4624 31.8919 33.4624C31.9668 33.4624 32.079 33.425 32.1539 33.3499C32.3034 33.2 32.3034 32.9748 32.1539 32.8249L31.2921 32.0376L31.9655 31.3627L32.7886 32.1877C32.8635 32.2628 32.9758 32.3002 33.0507 32.3002C33.1256 32.3002 33.2378 32.2628 33.3127 32.1877C33.4623 32.0378 33.4623 31.8126 33.3127 31.6627L32.4896 30.8377L33.1629 30.1628L33.9861 30.9878C34.061 31.0629 34.1732 31.1003 34.2481 31.1003C34.323 31.1003 34.4353 31.0629 34.5102 30.9878C34.6597 30.8379 34.6597 30.6127 34.5102 30.4628L33.687 29.6378L34.5851 28.7378C34.7719 28.5874 34.7719 28.325 34.6221 28.1751L34.6221 28.1752Z" fill="#002B51"/>
<path d="M15.6792 38.9911C18.1884 38.9911 20.2226 36.9523 20.2226 34.4375C20.2226 31.9226 18.1884 29.8839 15.6792 29.8839C13.1699 29.8839 11.1357 31.9226 11.1357 34.4375C11.1357 36.9523 13.1699 38.9911 15.6792 38.9911Z" fill="white"/>
<path d="M33.7861 21.2456C36.2954 21.2456 38.3295 19.2069 38.3295 16.692C38.3295 14.1771 36.2954 12.1384 33.7861 12.1384C31.2768 12.1384 29.2427 14.1771 29.2427 16.692C29.2427 19.2069 31.2768 21.2456 33.7861 21.2456Z" fill="white"/>
<path fill-rule="evenodd" clip-rule="evenodd" d="M30.8989 13.6979L33.7615 14.9015L36.9179 13.6979L34.4676 12.2739L32.3295 12.6126L30.8989 13.6979Z" fill="#B9E8FE"/>
<path fill-rule="evenodd" clip-rule="evenodd" d="M30.8989 19.9061L33.7615 18.7025L36.9179 19.9061L34.4676 21.3301L32.3295 20.9914L30.8989 19.9061Z" fill="#B9E8FE"/>
<path fill-rule="evenodd" clip-rule="evenodd" d="M19.8564 34.6521L17.0964 33.2281L15.9875 30.031L18.6509 30.997L19.7664 32.8562L19.8564 34.6521Z" fill="#B9E8FE"/>
<path fill-rule="evenodd" clip-rule="evenodd" d="M15.3799 39.0718L12.6199 37.6477L11.7228 36.0302L11.5109 34.4507L14.1744 35.4167L15.2898 37.2759L15.3799 39.0718Z" fill="#B9E8FE"/>
<path d="M33.7615 11.9C31.1048 11.9 28.9722 14.075 28.9722 16.7C28.9722 19.3252 31.1048 21.5377 33.7615 21.5377C36.4182 21.5377 38.5508 19.3627 38.5508 16.7377C38.5508 14.1127 36.4182 11.9 33.7615 11.9ZM36.2684 13.5127C35.5574 14.1127 34.6596 14.4127 33.7615 14.4127C32.8261 14.4127 31.9655 14.0753 31.2546 13.5127C31.9655 12.9503 32.8261 12.6126 33.7615 12.6126C34.6969 12.65 35.5949 12.9877 36.2684 13.5127ZM31.292 19.925C32.003 19.3626 32.8635 19.0626 33.7615 19.0626C34.6596 19.0626 35.5201 19.3626 36.2311 19.925C35.5577 20.45 34.697 20.75 33.7615 20.75C32.8261 20.7877 32.003 20.45 31.292 19.925ZM36.7549 19.4377C35.8944 18.7251 34.8468 18.3503 33.7615 18.3503C32.639 18.3503 31.5914 18.7254 30.7682 19.4377C30.1321 18.7251 29.7205 17.7503 29.7205 16.7377C29.7205 15.7251 30.0948 14.7876 30.7308 14.0751C31.5913 14.7876 32.6765 15.2001 33.7991 15.2001C34.9217 15.2001 36.0066 14.7876 36.8674 14.0751C37.5034 14.7876 37.8777 15.7251 37.8777 16.7377C37.8025 17.75 37.4282 18.6875 36.7549 19.4377H36.7549Z" fill="#002B51"/>
<path d="M12.3965 31.0626C11.4984 31.9627 10.9746 33.1626 10.9746 34.4752C10.9746 35.7501 11.4611 36.9877 12.3965 37.8878C13.3319 38.8253 14.5667 39.3128 15.8015 39.3128C17.0363 39.3128 18.271 38.8253 19.2064 37.8878C20.1045 36.9877 20.6283 35.7878 20.6283 34.4752C20.6283 33.2003 20.1418 31.9627 19.2064 31.0626C18.3084 30.1626 17.1112 29.6376 15.8015 29.6376C14.492 29.6752 13.2946 30.1628 12.3965 31.0626ZM11.7605 35.0002C12.6585 35.1127 13.4817 35.4878 14.1178 36.1253C14.7538 36.7627 15.1281 37.5878 15.2403 38.4878C14.3798 38.3754 13.5566 38.0003 12.9206 37.3254C12.2843 36.7253 11.8726 35.9003 11.7605 35.0002ZM18.6451 37.3628C17.8968 38.1127 16.9614 38.4878 15.9884 38.5252C15.8762 37.4378 15.4272 36.3876 14.6414 35.6002C13.8555 34.8126 12.8455 34.3253 11.7229 34.2502C11.7602 33.2376 12.1718 32.3001 12.8828 31.5876C13.5937 30.875 14.4915 30.4625 15.4646 30.4251C15.5395 31.5502 16.0257 32.6001 16.8115 33.3875C17.5974 34.1751 18.645 34.6624 19.7673 34.7375C19.7673 35.7501 19.3557 36.6501 18.645 37.3627L18.6451 37.3628ZM19.8049 33.9876C18.9069 33.9126 18.0464 33.5001 17.373 32.8626C16.7369 32.2251 16.3253 31.3627 16.2504 30.4252C17.1485 30.5377 18.009 30.9128 18.6451 31.5876C19.3185 32.2628 19.6928 33.0878 19.8049 33.9876Z" fill="#002B51"/>
<path fill-rule="evenodd" clip-rule="evenodd" d="M15.2405 12.2344L19.0565 11.3281L22.326 11.9L24.978 14.0751L26.9515 18.0875V22.8499L24.2951 26.7503L19.0565 28.2768L16.2506 27.9874L13.5005 26.4673L11.7606 24.2001L10.7876 21.7626V17.5578L12.9964 14.0751L15.2405 12.2344Z" fill="#B9E8FE"/>
<path d="M25.1181 13.5875C21.6758 10.1375 16.0633 10.1375 12.621 13.5875C9.1411 17.0377 9.1411 22.6625 12.5834 26.15C14.3047 27.8751 16.5871 28.7376 18.8319 28.7376C21.1143 28.7376 23.3595 27.8751 25.0805 26.15C28.5604 22.6626 28.5604 17.0375 25.1181 13.5875ZM10.7876 20.45C12.8828 20.2624 14.8659 19.4 16.4374 17.9749L18.3456 19.8874L12.8829 25.3251C11.6108 23.9376 10.8998 22.2126 10.7876 20.45ZM26.9141 19.2876C24.8188 19.4751 22.8357 20.3376 21.2642 21.7626L19.3561 19.8502L24.8187 14.4125C26.0908 15.8002 26.8018 17.525 26.9141 19.2876ZM18.8695 19.3252L16.9611 17.4126C18.383 15.875 19.2809 13.8875 19.4307 11.7502C21.1893 11.8626 22.9103 12.5752 24.2949 13.8501L18.8695 19.3252ZM16.4373 16.8876L13.4066 13.8502C14.9032 12.5002 16.774 11.7876 18.6824 11.7502C18.4953 13.6627 17.7097 15.4626 16.4373 16.8877V16.8876ZM18.8695 20.4127L20.7777 22.3251C19.3558 23.8627 18.4579 25.8502 18.3081 27.9875C16.5496 27.8751 14.8285 27.1625 13.4439 25.8876L18.8695 20.4127ZM21.3015 22.85L24.3321 25.8875C22.8356 27.2375 20.9648 27.95 19.0563 27.9874C19.2061 26.0376 19.9917 24.2377 21.3015 22.85V22.85ZM21.8253 22.2876C23.2472 20.975 25.0431 20.1877 26.9513 20.0375C26.9139 21.9499 26.203 23.8249 24.856 25.3251L21.8253 22.2876ZM12.8827 14.4126L15.9134 17.4501C14.4915 18.7627 12.6956 19.55 10.7874 19.7002C10.8247 17.7878 11.5357 15.9128 12.8827 14.4126H12.8827Z" fill="#002B51"/>
</svg>
