<svg width="100" height="100" viewBox="0 0 100 100" fill="none" xmlns="http://www.w3.org/2000/svg">
<path d="M50 100C77.6142 100 100 77.6142 100 50C100 22.3858 77.6142 0 50 0C22.3858 0 0 22.3858 0 50C0 77.6142 22.3858 100 50 100Z" fill="#DCF3FE"/>
<path d="M82.354 10.3958L87.2645 15.3062L68.1815 34.3892L61.2033 36.5009L63.271 29.4787L82.354 10.3958Z" fill="white" stroke="#002B51" stroke-width="2.08333" stroke-linejoin="round"/>
<path d="M79.4009 13.3492L84.3113 18.2597L68.5594 34.0117L63.6489 29.1012L79.4009 13.3492Z" fill="#B9E8FE" stroke="#002B51" stroke-width="2.08333" stroke-linejoin="round"/>
<path d="M86.2897 8.42435L89.236 11.3706C89.7784 11.913 89.7784 12.7924 89.236 13.3348L87.2646 15.3062L82.3541 10.3958L84.3255 8.42435C84.8679 7.88196 85.7473 7.88196 86.2897 8.42435Z" fill="#B9E8FE" stroke="#002B51" stroke-width="2.08333"/>
<path d="M68.0667 34.5038L63.1562 29.5934" stroke="#002B51" stroke-width="2.08333"/>
<path d="M25.84 51.0145H36.2274C42.0244 51.0145 46.7238 55.7139 46.7238 61.5109C46.7238 63.3194 46.2565 65.0973 45.3672 66.6721V91.8581H18.8418V66.6721V89.8837C18.8418 91.5078 17.5252 92.8244 15.9011 92.8244C15.381 92.8244 14.8703 92.6865 14.4209 92.4247C11.6836 90.8302 10 87.901 10 84.7331V66.8545C10 58.1063 17.0918 51.0145 25.84 51.0145Z" fill="white" stroke="#002B51" stroke-width="1.65" stroke-linejoin="round"/>
<path d="M25.84 51.0145H38.369C47.1172 51.0145 54.209 58.1063 54.209 66.8545V71.1015H45.3672V66.6721V91.8581H18.8418V66.6721V71.1015H10V66.8545C10 58.1063 17.0918 51.0145 25.84 51.0145Z" fill="#B9E8FE" stroke="#002B51" stroke-width="1.65" stroke-linejoin="round"/>
<path d="M37.8936 49.3397C40.0901 48.3055 42.7092 49.2477 43.7434 51.4443C43.748 51.4541 43.7526 51.4639 43.7571 51.4737L53.122 71.7516C54.1497 73.9768 53.1897 76.6145 50.9721 77.6586C48.7755 78.6928 46.1565 77.7505 45.1223 75.554C45.1177 75.5442 45.1131 75.5344 45.1086 75.5245L35.7437 55.2467C34.716 53.0214 35.676 50.3838 37.8936 49.3397Z" fill="white" stroke="#002B51" stroke-width="1.65"/>
<path d="M32.1047 46.5508C38.8191 46.5508 44.2622 41.0549 44.2622 34.2754C44.2622 27.4959 38.8191 22 32.1047 22C25.3904 22 19.9473 27.4959 19.9473 34.2754C19.9473 41.0549 25.3904 46.5508 32.1047 46.5508Z" fill="white" stroke="#002B51" stroke-width="1.65"/>
<path d="M55.7222 45.9016H91.8333" stroke="#002B51" stroke-width="2.08333" stroke-linecap="round"/>
</svg>