<svg width="24" height="24" viewBox="0 0 24 24" fill="none" xmlns="http://www.w3.org/2000/svg">
<path fill-rule="evenodd" clip-rule="evenodd" d="M19.9856 13.6766C19.2743 12.9004 18.45 12.0009 18.45 10.4211V7.89531C18.45 4.61113 15.8161 2 12.5 2C9.185 2 6.55 4.61113 6.55 7.89531V10.4211C6.55 12.0009 5.72568 12.9004 5.0144 13.6766C4.47466 14.2655 4 14.7835 4 15.4738C4 16.5491 5.8713 17.4342 9 17.808V17.9034C9 20.0762 10.479 21.7999 12.4531 21.7999C14.4262 21.7999 15.9062 20.0762 15.9062 17.9034V17.8191C19.0917 17.4518 21 16.5598 21 15.4738C21 14.7835 20.5253 14.2655 19.9856 13.6766ZM14.3121 17.9521C13.7377 17.9833 13.1328 17.9996 12.5 17.9996C11.8327 17.9996 11.1964 17.9814 10.594 17.9468C10.6116 19.2617 11.4274 20.1999 12.4531 20.1999C13.4775 20.1999 14.2925 19.2642 14.3121 17.9521ZM12.5 16.3996C10.1296 16.3996 8.12887 16.1596 6.771 15.7436C6.30775 15.6007 5.95075 15.4471 5.71487 15.3031C5.73825 15.2732 5.76587 15.238 5.79881 15.1986C5.9125 15.0599 6.49369 14.4221 6.46394 14.4562C7.57319 13.2104 8.14375 12.0659 8.14375 10.4211V7.89531C8.14375 5.49964 10.0605 3.59996 12.5 3.59996C14.9395 3.59996 16.8562 5.49964 16.8562 7.89531V10.4211C16.8562 12.0659 17.4279 13.2104 18.5371 14.4562C18.5074 14.4221 19.0886 15.0599 19.2023 15.1986C19.2352 15.238 19.2628 15.2732 19.2862 15.3031C19.0503 15.4471 18.6933 15.6007 18.229 15.7436C16.8722 16.1596 14.8715 16.3996 12.5 16.3996Z" fill="#187ABA"/>
</svg>
