<svg width="50" height="50" viewBox="0 0 50 50" fill="none" xmlns="http://www.w3.org/2000/svg">
<path d="M25 50C38.8071 50 50 38.8071 50 25C50 11.1929 38.8071 0 25 0C11.1929 0 0 11.1929 0 25C0 38.8071 11.1929 50 25 50Z" fill="#DCF3FE"/>
<path fill-rule="evenodd" clip-rule="evenodd" d="M18.7946 16.4315L19.4303 19.5282L21.9936 22.2868L20.3941 24.8178L15.995 29.4201L14.7856 32.7915L15.2504 36.5023L17.3063 39.9366L22.1917 41.4228L27.344 40.7652L33.1154 38.2589L35.7491 34.2086L34.3336 32.7915L36.5948 30.4113L35.7491 27.4786L33.7303 25.4999L31.0934 26.244L29.0163 25.1344L26.5032 23.3463V22.2868L29.3382 20.3796L30.0811 17.0587L29.4703 15.883L25.5001 15.3277L23.6161 14.1952L20.6582 15.883L18.7946 16.4315Z" fill="white"/>
<path fill-rule="evenodd" clip-rule="evenodd" d="M17.3063 15.3864L17.9617 12.7842L20.6861 10.7134L25.5001 9.55139L30.6832 12.4689L31.9941 15.3864L31.0934 21.867L29.9165 25.5001L26.932 23.3464L28.6791 21.0573L29.9165 17.9436L29.4703 15.8832L25.5001 15.3864L23.6161 14.1953L21.4251 15.3864L18.7946 16.4316V19.2029L20.6861 21.867L21.9937 23.3464L19.2271 25.5001L17.3063 20.3797L16.3242 16.4316L17.3063 15.3864Z" fill="#B9E8FE"/>
<path fill-rule="evenodd" clip-rule="evenodd" d="M28.3087 30.8298L24.3487 31.614L21.5544 33.5126L20.6582 35.5859L22.1917 37.5875H25.9142L31.3872 35.5859L33.7304 33.5126L29.9144 32.5963L28.3087 30.8298Z" fill="#B9E8FE"/>
<path d="M30.6807 16.509C30.7065 16.7476 30.7204 16.9825 30.7204 17.2133C30.7204 18.9553 30.0062 20.5335 28.8501 21.6777C28.4083 22.1176 27.901 22.4924 27.3438 22.7863C27.9289 23.1573 28.4781 23.5379 28.9954 23.9266C29.1744 24.0626 29.3477 24.1967 29.5167 24.333C29.7257 23.5854 29.9703 22.8336 30.2131 22.0841C30.7641 20.3837 31.3114 18.7028 31.387 17.2133C31.387 16.9471 31.3712 16.6847 31.3412 16.4263C31.1224 16.4597 30.9016 16.4874 30.6806 16.509L30.6807 16.509ZM28.1179 24.8181C27.6224 25.0705 27.0972 25.2757 26.55 25.4258C25.8437 25.621 25.1054 25.7236 24.3474 25.7236C23.6411 25.7236 22.9526 25.6349 22.2959 25.4691C21.7747 25.337 21.2692 25.1535 20.7918 24.9267C18.1913 26.8855 16.6075 28.9806 15.8316 30.9907C15.2168 32.5847 15.1134 34.1235 15.4098 35.4887C15.7041 36.8401 16.3947 38.0258 17.3697 38.9272C18.5813 40.0437 20.2347 40.7284 22.1269 40.7618C26.1501 40.8328 29.493 39.7873 31.7453 38.3136C32.7124 37.6824 33.4703 36.9742 33.9898 36.2461C34.4792 35.5577 34.7459 34.8613 34.7578 34.2121C34.7617 33.997 34.7378 33.784 34.6822 33.5769C32.989 35.1275 30.663 36.5301 28.3792 37.3884C25.5021 38.4694 22.6389 38.6923 21.0156 37.3192L20.9658 37.2759C20.5817 36.8992 20.3411 36.4533 20.2355 35.9699C20.0664 35.1946 20.2555 34.3345 20.7628 33.5138C21.2364 32.7502 21.9984 32.0104 23.0152 31.4069C24.3145 30.6316 26.0434 30.0714 28.1207 29.9745C28.0988 29.7931 28.087 29.6075 28.087 29.4201C28.087 29.2426 28.097 29.0591 28.1188 28.8737L28.1209 28.8659C28.2623 27.769 28.8055 26.7964 29.5993 26.104L29.6411 26.0685C29.2133 25.678 28.7478 25.2912 28.2444 24.9106L28.1191 24.8179L28.1179 24.8181ZM21.9935 24.0822C22.1925 24.1532 22.3974 24.2143 22.6043 24.2675C23.1614 24.4077 23.7465 24.4826 24.3473 24.4826C24.9999 24.4826 25.6265 24.3957 26.2194 24.2341C26.4622 24.167 26.6989 24.0882 26.9319 23.9973C26.5957 23.7783 26.2434 23.5614 25.8735 23.3463C25.3841 23.4646 24.8728 23.5278 24.3475 23.5278C23.9138 23.5278 23.49 23.4844 23.0801 23.4035C22.702 23.6264 22.3399 23.8533 21.9937 24.0822L21.9935 24.0822ZM30.5673 25.2323L30.7305 25.3842C31.2837 25.1396 31.8966 25.0034 32.5432 25.0034C33.4068 25.0034 34.2166 25.2501 34.9009 25.674C35.6091 26.112 36.1841 26.7412 36.5503 27.487V27.4909C36.6956 27.7869 36.8089 28.1044 36.8865 28.4338C36.9602 28.7533 37 29.0848 37 29.4203C37 30.6255 36.5085 31.7206 35.7146 32.5194L35.6688 32.5727L35.643 32.6022C35.8976 33.119 36.0151 33.6675 36.0051 34.2316C35.9872 35.1372 35.643 36.0701 35.0101 36.9579C34.4072 37.8063 33.5339 38.6249 32.4295 39.3449C29.992 40.9409 26.4003 42.0733 22.1069 41.9963C19.8903 41.9587 17.9484 41.15 16.5198 39.8322C15.3579 38.7591 14.5381 37.3526 14.1879 35.7506C13.8417 34.1585 13.9591 32.3792 14.6634 30.5483C15.31 28.8735 16.4542 27.1532 18.1911 25.5C17.9563 24.5039 17.6222 23.478 17.2918 22.4581C16.7107 20.6689 16.1378 18.9011 16.0562 17.2422L16.0541 17.2126C16.0541 14.9478 16.9832 12.8924 18.4855 11.4068C19.9857 9.91938 22.059 9 24.3472 9C26.6333 9 28.7066 9.91938 30.205 11.4068C31.7072 12.8942 32.6364 14.9478 32.6364 17.2126L32.6343 17.2403C32.5548 18.9034 31.9816 20.673 31.4005 22.4622C31.1001 23.3873 30.7976 24.3185 30.567 25.2319L30.5673 25.2323ZM21.5542 22.8887C20.9176 22.5809 20.3405 22.1705 19.845 21.6793C18.6889 20.5351 17.9747 18.9548 17.9747 17.2128C17.9747 17.0056 17.9865 16.7868 18.0105 16.5618C17.7856 16.5323 17.5647 16.4887 17.3499 16.4316C17.3201 16.6879 17.3062 16.9484 17.3062 17.2128C17.3838 18.7023 17.9288 20.3811 18.4801 22.0797C18.7487 22.9083 19.0193 23.7389 19.2421 24.5693C19.9345 23.9971 20.7046 23.4351 21.5542 22.8885V22.8887ZM32.3982 33.8352C31.2263 33.7977 30.1677 33.3105 29.3939 32.5431C29.0058 32.1604 28.6896 31.7067 28.4648 31.2037C26.477 31.2509 24.8495 31.756 23.6539 32.4682C22.8221 32.9634 22.2053 33.559 21.8293 34.1629C21.4892 34.7113 21.3578 35.2537 21.4573 35.7134C21.511 35.958 21.6324 36.1849 21.8275 36.3801C23.057 37.4199 25.4566 37.1633 27.94 36.2303C29.4899 35.6484 31.0578 34.8021 32.3989 33.8352L32.3982 33.8352ZM34.2428 26.7254C33.7494 26.4197 33.1683 26.244 32.5435 26.244C31.7297 26.244 30.9875 26.544 30.4246 27.035C29.8517 27.5341 29.4615 28.2285 29.3581 29.0098C29.3441 29.138 29.3381 29.2742 29.3381 29.4201C29.3381 30.298 29.6961 31.0932 30.2733 31.6672C30.8522 32.2412 31.6541 32.5962 32.5435 32.5962C33.431 32.5962 34.2328 32.2391 34.8138 31.6651C35.3909 31.0929 35.749 30.298 35.749 29.4201C35.749 29.1716 35.7211 28.9349 35.6695 28.7099C35.6137 28.4713 35.5323 28.2442 35.4288 28.0293C35.1642 27.4926 34.7504 27.039 34.243 26.7254L34.2428 26.7254ZM19.2607 16.611L19.2528 16.676C19.2369 16.8417 19.2269 17.0213 19.2269 17.2127C19.2269 18.6174 19.7999 19.8858 20.7253 20.8012C21.6505 21.7186 22.9318 22.2868 24.3485 22.2868C25.7632 22.2868 27.0445 21.7188 27.9718 20.8012C28.897 19.8839 29.4701 18.6155 29.4701 17.2127C29.4701 17.0135 29.4601 16.824 29.4404 16.6426L29.4304 16.5676C27.7054 16.5637 25.9345 16.2165 24.4422 15.5005C23.9786 15.2796 23.5429 15.023 23.1429 14.7312C22.6456 15.4788 21.7939 16.0273 20.8111 16.335H20.809C20.3195 16.487 19.7943 16.5817 19.2609 16.6112L19.2607 16.611ZM22.1915 13.8964C21.499 13.1626 20.9917 12.2709 20.749 11.2173C20.2435 11.5152 19.7801 11.8743 19.3663 12.2826C18.5524 13.0895 17.9356 14.0938 17.5994 15.218C18.5066 15.4705 19.5432 15.4311 20.4346 15.153C21.2324 14.9024 21.893 14.4685 22.1915 13.8964L22.1915 13.8964ZM21.9129 10.6688C21.9229 10.7339 21.9348 10.7991 21.9487 10.8602C22.2929 12.4936 23.465 13.6575 24.9831 14.3856C26.5669 15.1452 28.5208 15.4349 30.3472 15.2929C30.5999 15.2752 30.8485 15.2475 31.0933 15.212C30.755 14.0895 30.1402 13.0874 29.3264 12.2823C28.0529 11.0218 26.2921 10.2404 24.3483 10.2404C23.4926 10.2404 22.6709 10.3924 21.9129 10.6686V10.6688Z" fill="#002B51"/>
</svg>
