<svg width="40" height="40" viewBox="0 0 40 40" fill="none" xmlns="http://www.w3.org/2000/svg">
<mask id="mask0_0_2066" style="mask-type:alpha" maskUnits="userSpaceOnUse" x="17" y="0" width="7" height="8">
<path fill-rule="evenodd" clip-rule="evenodd" d="M17 0H24V8H17V0Z" fill="white"/>
</mask>
<g mask="url(#mask0_0_2066)">
<path fill-rule="evenodd" clip-rule="evenodd" d="M20.4463 7.99989C22.3792 8.02051 23.9783 5.25306 23.9998 3.39746C24.0212 1.54182 22.4718 0.0209123 20.5389 0.000211493C18.606 -0.0203932 17.0217 1.46717 17.0002 3.32273C16.9788 5.17835 18.5134 7.97923 20.4463 7.99989Z" fill="#FEFEFE"/>
</g>
<path fill-rule="evenodd" clip-rule="evenodd" d="M4.51173 14.2986C5.97612 15.2514 8.87639 15.3768 9.74372 13.7682C10.611 12.1595 9.11692 9.42585 7.65254 8.47308C6.18812 7.52031 4.298 8.05201 3.43063 9.66069C2.56333 11.2694 3.04737 13.3459 4.51173 14.2986Z" fill="#FEFEFE"/>
<path fill-rule="evenodd" clip-rule="evenodd" d="M8.7664 26.302C7.93487 24.6668 5.04335 24.7217 3.56545 25.6416C2.08752 26.5616 1.56352 28.6328 2.39498 30.268C3.22652 31.9032 5.0987 32.4829 6.57657 31.563C8.05449 30.643 9.59789 27.9371 8.7664 26.302Z" fill="#FEFEFE"/>
<mask id="mask1_0_2066" style="mask-type:alpha" maskUnits="userSpaceOnUse" x="16" y="32" width="7" height="8">
<path fill-rule="evenodd" clip-rule="evenodd" d="M16 32H23V40H16V32Z" fill="white"/>
</mask>
<g mask="url(#mask1_0_2066)">
<path fill-rule="evenodd" clip-rule="evenodd" d="M19.5537 32.0001C17.6208 31.9795 16.0217 34.7469 16.0002 36.6025C15.9788 38.4582 17.5282 39.9791 19.4611 39.9998C21.394 40.0204 22.9783 38.5328 22.9998 36.6773C23.0212 34.8216 21.4866 32.0208 19.5537 32.0001Z" fill="#FEFEFE"/>
</g>
<path fill-rule="evenodd" clip-rule="evenodd" d="M34.2033 20.84C33.843 20.7787 33.4577 20.7125 33.0567 20.6433C33.4591 20.5829 33.8459 20.5252 34.2075 20.4718C36.7904 20.0902 40.2128 20.2705 39.9896 18.138C39.7746 16.0836 31.6995 18.9729 29.0481 15.4728C27.3953 11.418 34.0878 6.10205 32.4214 4.85405C30.6916 3.55874 29.071 6.54104 27.3999 8.52294C27.1659 8.80041 26.9153 9.09685 26.6541 9.40514C26.8023 9.03079 26.9451 8.67122 27.0791 8.33526C28.0358 5.93552 29.9051 3.0987 27.9234 2.22333C26.0143 1.38004 24.5105 9.73066 20.1154 10.2482C15.7331 9.63435 14.4175 1.25273 12.4898 2.05393C10.489 2.88562 12.294 5.76278 13.1965 8.18288C13.3229 8.52172 13.4576 8.88433 13.5973 9.26189C13.3431 8.94789 13.0992 8.64598 12.8715 8.36343C11.2454 6.3453 9.69232 3.32823 7.93384 4.58531C6.23972 5.79642 12.811 11.2578 11.0673 15.2754C8.33781 18.7164 0.329663 15.6507 0.0684586 17.6999C-0.202622 19.8269 3.22308 19.7217 5.79667 20.1599C6.15699 20.2213 6.54233 20.2874 6.9433 20.3567C6.54084 20.4171 6.15412 20.4748 5.79248 20.5282C3.20962 20.9098 -0.212793 20.7295 0.0103788 22.862C0.225426 24.9164 8.30046 22.0271 10.9519 25.5272C12.6047 29.582 5.91216 34.8979 7.57863 36.146C9.3084 37.4413 10.929 34.459 12.6001 32.477C12.8341 32.1996 13.0847 31.9031 13.346 31.5948C13.1977 31.9692 13.0549 32.3287 12.921 32.6647C11.9642 35.0645 10.0949 37.9013 12.0765 38.7767C13.9857 39.6199 15.4895 31.2693 19.8846 30.7517C24.2669 31.3656 25.5825 39.7473 27.5102 38.9461C29.511 38.1144 27.706 35.2372 26.8035 32.8171C26.6771 32.4783 26.5424 32.1157 26.4026 31.7381C26.6569 32.0521 26.9008 32.354 27.1285 32.6366C28.7545 34.6547 30.3077 37.6718 32.0662 36.4147C33.7603 35.2036 27.189 29.7422 28.9327 25.7246C31.6622 22.2836 39.6703 25.3493 39.9315 23.3001C40.2026 21.1731 36.7769 21.2783 34.2033 20.84Z" fill="#FEFEFE"/>
<path fill-rule="evenodd" clip-rule="evenodd" d="M35.4883 25.7014C34.0239 24.7486 31.1236 24.6232 30.2563 26.2319C29.389 27.8405 30.8831 30.5742 32.3475 31.5269C33.8119 32.4797 35.702 31.948 36.5694 30.3393C37.4367 28.7306 36.9526 26.6541 35.4883 25.7014Z" fill="#FEFEFE"/>
<path fill-rule="evenodd" clip-rule="evenodd" d="M31.2336 13.698C32.0651 15.3332 34.9567 15.2783 36.4345 14.3584C37.9125 13.4384 38.4365 11.3671 37.605 9.73196C36.7735 8.09682 34.9013 7.51706 33.4234 8.43703C31.9455 9.35702 30.4021 12.0629 31.2336 13.698Z" fill="#FEFEFE"/>
<path fill-rule="evenodd" clip-rule="evenodd" d="M28.1355 1.22937C26.2503 0.363289 24.7653 8.93952 20.4253 9.4711C16.0979 8.84063 14.7988 0.232521 12.8953 1.05539C10.9195 1.90953 12.702 4.86444 13.5932 7.34994C14.7815 10.664 16.711 16.1868 16.711 16.1868C16.711 16.1868 17.8326 19.9716 20.3113 19.9998C22.7903 20.0282 23.9934 16.2699 23.9934 16.2699C23.9934 16.2699 26.042 10.7925 27.3017 7.50642C28.2465 5.04185 30.0923 2.12839 28.1355 1.22937Z" fill="#AA0000"/>
<path fill-rule="evenodd" clip-rule="evenodd" d="M23.9998 3.39746C23.9783 5.25305 22.3792 8.02049 20.4463 7.99989C18.5134 7.97923 16.9788 5.17834 17.0002 3.32273C17.0217 1.46715 18.606 -0.0204089 20.5389 0.00021182C22.4718 0.0208966 24.0212 1.5418 23.9998 3.39746Z" fill="#AA0000"/>
<path fill-rule="evenodd" clip-rule="evenodd" d="M7.7638 4.30277C6.09478 5.53793 12.5687 11.1078 10.8509 15.2052C8.1618 18.7145 0.272265 15.5879 0.0149148 17.6778C-0.252135 19.847 3.12281 19.7398 5.65828 20.1867C9.039 20.7826 14.6475 21.8204 14.6475 21.8204C14.6475 21.8204 18.3909 22.7089 19.6513 20.5335C20.9117 18.358 18.3503 15.4292 18.3503 15.4292C18.3503 15.4292 14.7644 10.9002 12.6284 8.15592C11.0264 6.09771 9.49624 3.02073 7.7638 4.30277Z" fill="#675882"/>
<path fill-rule="evenodd" clip-rule="evenodd" d="M7.65255 8.47308C9.11691 9.42584 10.611 12.1595 9.74373 13.7682C8.8764 15.3768 5.97613 15.2514 4.51174 14.2986C3.04736 13.3459 2.56333 11.2694 3.43064 9.66068C4.29801 8.052 6.18813 7.52031 7.65255 8.47308Z" fill="#675882"/>
<mask id="mask2_0_2066" style="mask-type:alpha" maskUnits="userSpaceOnUse" x="0" y="18" width="20" height="18">
<path fill-rule="evenodd" clip-rule="evenodd" d="M0 18H20V36H0V18Z" fill="white"/>
</mask>
<g mask="url(#mask2_0_2066)">
<path fill-rule="evenodd" clip-rule="evenodd" d="M10.7769 24.7369C12.4033 28.9136 5.81766 34.3893 7.45751 35.6748C9.15962 37.0091 10.7544 33.9371 12.3987 31.8956C14.5913 29.1736 18.2703 24.6827 18.2703 24.6827C18.2703 24.6827 20.8916 21.7841 19.6803 19.5586C18.469 17.3329 14.7117 18.1442 14.7117 18.1442C14.7117 18.1442 9.08866 19.0635 5.69991 19.5876C3.15833 19.9807 -0.209392 19.795 0.0102129 21.9916C0.221823 24.1077 8.16778 21.1316 10.7769 24.7369Z" fill="#005AAA"/>
</g>
<path fill-rule="evenodd" clip-rule="evenodd" d="M3.56545 25.6416C5.04335 24.7217 7.93487 24.6668 8.7664 26.302C9.59789 27.9371 8.05449 30.643 6.57657 31.563C5.0987 32.4829 3.22652 31.9032 2.39498 30.268C1.56352 28.6328 2.08752 26.5616 3.56545 25.6416Z" fill="#005AAA"/>
<path fill-rule="evenodd" clip-rule="evenodd" d="M11.8645 38.7706C13.7497 39.6367 15.2347 31.0605 19.5747 30.5289C23.9021 31.1594 25.2012 39.7675 27.1047 38.9446C29.0805 38.0905 27.298 35.1356 26.4069 32.6501C25.2185 29.336 23.289 23.8132 23.289 23.8132C23.289 23.8132 22.1674 20.0284 19.6886 20.0002C17.2098 19.9718 16.0066 23.7301 16.0066 23.7301C16.0066 23.7301 13.958 29.2075 12.6983 32.4936C11.7536 34.9582 9.90768 37.8716 11.8645 38.7706Z" fill="#6D9F51"/>
<path fill-rule="evenodd" clip-rule="evenodd" d="M16.0002 36.6025C16.0217 34.747 17.6208 31.9795 19.5537 32.0001C21.4866 32.0208 23.0212 34.8217 22.9998 36.6773C22.9783 38.5328 21.394 40.0204 19.4611 39.9998C17.5282 39.9791 15.9788 38.4582 16.0002 36.6025Z" fill="#6D9F51"/>
<path fill-rule="evenodd" clip-rule="evenodd" d="M32.2362 35.6972C33.9052 34.4621 27.4313 28.8923 29.1491 24.7948C31.8382 21.2856 39.7277 24.4121 39.9851 22.3222C40.2521 20.153 36.8772 20.2603 34.3417 19.8133C30.961 19.2174 25.3525 18.1796 25.3525 18.1796C25.3525 18.1796 21.6091 17.2911 20.3488 19.4665C19.0883 21.642 21.6497 24.5708 21.6497 24.5708C21.6497 24.5708 25.2356 29.0998 27.3716 31.8441C28.9736 33.9023 30.5038 36.9793 32.2362 35.6972Z" fill="#DBC70A"/>
<path fill-rule="evenodd" clip-rule="evenodd" d="M32.3474 31.5269C30.8831 30.5742 29.389 27.8405 30.2563 26.2318C31.1236 24.6232 34.0239 24.7486 35.4883 25.7014C36.9526 26.6541 37.4367 28.7306 36.5694 30.3393C35.702 31.948 33.8119 32.4797 32.3474 31.5269Z" fill="#DBC70A"/>
<mask id="mask3_0_2066" style="mask-type:alpha" maskUnits="userSpaceOnUse" x="20" y="4" width="20" height="18">
<path fill-rule="evenodd" clip-rule="evenodd" d="M20 4H40V22H20V4Z" fill="white"/>
</mask>
<g mask="url(#mask3_0_2066)">
<path fill-rule="evenodd" clip-rule="evenodd" d="M39.9898 18.0084C39.7782 15.8923 31.8322 18.8684 29.2231 15.2631C27.5967 11.0864 34.1823 5.61068 32.5425 4.32517C30.8404 2.99092 29.2457 6.06288 27.6013 8.10434C25.4087 10.8264 21.7297 15.3173 21.7297 15.3173C21.7297 15.3173 19.1084 18.2159 20.3197 20.4414C21.531 22.6671 25.2883 21.8558 25.2883 21.8558C25.2883 21.8558 30.9113 20.9365 34.3001 20.4124C36.8417 20.0193 40.2094 20.205 39.9898 18.0084Z" fill="#CF7201"/>
</g>
<path fill-rule="evenodd" clip-rule="evenodd" d="M36.4345 14.3584C34.9567 15.2783 32.0651 15.3332 31.2336 13.698C30.4021 12.0629 31.9455 9.35702 33.4234 8.43703C34.9013 7.51706 36.7735 8.09682 37.605 9.73196C38.4365 11.3671 37.9125 13.4384 36.4345 14.3584Z" fill="#CF7201"/>
</svg>
