<svg width="100" height="100" viewBox="0 0 100 100" fill="none" xmlns="http://www.w3.org/2000/svg">
<path d="M50 100C77.6142 100 100 77.6142 100 50C100 22.3858 77.6142 0 50 0C22.3858 0 0 22.3858 0 50C0 77.6142 22.3858 100 50 100Z" fill="#DCF3FE"/>
<path d="M70.934 66.1893C81.0253 55.0374 80.6547 37.8971 69.8228 27.1846C58.6065 16.0933 40.4218 16.0933 29.2056 27.1846C17.9899 38.2765 17.9899 56.2596 29.2056 67.3515" stroke="#002B51" stroke-width="1.38105" stroke-linecap="round" stroke-linejoin="round"/>
<path d="M44.7063 56.8881H55.2485C62.5708 56.8881 68.5066 62.8239 68.5066 70.1461V84.5049C68.5066 87.1429 67.0921 89.5784 64.8008 90.8857C63.6121 91.5639 62.0987 91.15 61.4206 89.9614C61.2072 89.5873 61.0949 89.1641 61.0949 88.7334V69.7429V90.4206H38.8599V69.7429V88.7334C38.8599 90.102 37.7505 91.2114 36.382 91.2114C35.9514 91.2114 35.5281 91.0991 35.1541 90.8857C32.8627 89.5784 31.4482 87.1429 31.4482 84.5049V70.1461C31.4482 62.8239 37.3841 56.8881 44.7063 56.8881Z" fill="white" stroke="#002B51" stroke-width="1.38105" stroke-linejoin="round"/>
<path d="M44.7063 56.8881H55.2485C62.5708 56.8881 68.5066 62.8239 68.5066 70.1461V73.3795H61.0949V69.7429V90.4206H38.8599V69.7429V73.3795H31.4482V70.1461C31.4482 62.8239 37.3841 56.8881 44.7063 56.8881Z" fill="#B9E8FE" stroke="#002B51" stroke-width="1.38105" stroke-linejoin="round"/>
<path d="M49.9772 53.2233C55.6055 53.2233 60.1682 48.7112 60.1682 43.1452C60.1682 37.5792 55.6055 33.0671 49.9772 33.0671C44.3488 33.0671 39.7861 37.5792 39.7861 43.1452C39.7861 48.7112 44.3488 53.2233 49.9772 53.2233Z" fill="white" stroke="#002B51" stroke-width="1.38105"/>
<mask id="mask0_4_7255" style="mask-type:alpha" maskUnits="userSpaceOnUse" x="41" y="9" width="18" height="17">
<path d="M49.9773 25.7376C54.5823 25.7376 58.3154 22.0459 58.3154 17.4919C58.3154 12.9379 54.5823 9.24622 49.9773 9.24622C45.3723 9.24622 41.6392 12.9379 41.6392 17.4919C41.6392 22.0459 45.3723 25.7376 49.9773 25.7376Z" fill="white"/>
</mask>
<g mask="url(#mask0_4_7255)">
<path d="M49.9774 26.4281C54.9638 26.4281 59.006 22.4272 59.006 17.4919C59.006 12.5565 54.9638 8.55566 49.9774 8.55566C44.991 8.55566 40.9487 12.5565 40.9487 17.4919C40.9487 22.4272 44.991 26.4281 49.9774 26.4281Z" stroke="#002B51" stroke-width="1.38105"/>
<path d="M49.9427 20.2405H50.0118C53.0627 20.2405 55.536 22.7137 55.536 25.7647V29.8605H44.4185V25.7647C44.4185 22.7137 46.8917 20.2405 49.9427 20.2405Z" fill="white" stroke="#002B51" stroke-width="1.38105" stroke-linejoin="round"/>
<path d="M49.9773 20.2405C52.024 20.2405 53.6832 18.5998 53.6832 16.5758C53.6832 14.5518 52.024 12.911 49.9773 12.911C47.9306 12.911 46.2715 14.5518 46.2715 16.5758C46.2715 18.5998 47.9306 20.2405 49.9773 20.2405Z" fill="white" stroke="#002B51" stroke-width="1.38105"/>
</g>
<mask id="mask1_4_7255" style="mask-type:alpha" maskUnits="userSpaceOnUse" x="67" y="28" width="18" height="17">
<path d="M75.9182 44.9776C80.5232 44.9776 84.2563 41.2859 84.2563 36.7319C84.2563 32.1779 80.5232 28.4862 75.9182 28.4862C71.3132 28.4862 67.5801 32.1779 67.5801 36.7319C67.5801 41.2859 71.3132 44.9776 75.9182 44.9776Z" fill="white"/>
</mask>
<g mask="url(#mask1_4_7255)">
<path d="M75.9183 45.6681C80.9047 45.6681 84.947 41.6672 84.947 36.7319C84.947 31.7965 80.9047 27.7957 75.9183 27.7957C70.9319 27.7957 66.8896 31.7965 66.8896 36.7319C66.8896 41.6672 70.9319 45.6681 75.9183 45.6681Z" stroke="#002B51" stroke-width="1.38105"/>
<path d="M75.8836 39.4805H75.9527C79.0036 39.4805 81.4769 41.9537 81.4769 45.0047V49.1005H70.3594V45.0047C70.3594 41.9537 72.8326 39.4805 75.8836 39.4805Z" fill="white" stroke="#002B51" stroke-width="1.38105" stroke-linejoin="round"/>
<path d="M75.9182 39.4805C77.9649 39.4805 79.6241 37.8397 79.6241 35.8158C79.6241 33.7918 77.9649 32.151 75.9182 32.151C73.8716 32.151 72.2124 33.7918 72.2124 35.8158C72.2124 37.8397 73.8716 39.4805 75.9182 39.4805Z" fill="white" stroke="#002B51" stroke-width="1.38105"/>
</g>
<mask id="mask2_4_7255" style="mask-type:alpha" maskUnits="userSpaceOnUse" x="14" y="28" width="18" height="17">
<path d="M23.1101 44.9776C27.7151 44.9776 31.4482 41.2859 31.4482 36.7319C31.4482 32.1779 27.7151 28.4862 23.1101 28.4862C18.5051 28.4862 14.772 32.1779 14.772 36.7319C14.772 41.2859 18.5051 44.9776 23.1101 44.9776Z" fill="white"/>
</mask>
<g mask="url(#mask2_4_7255)">
<path d="M23.1102 45.6681C28.0966 45.6681 32.1389 41.6672 32.1389 36.7319C32.1389 31.7965 28.0966 27.7957 23.1102 27.7957C18.1238 27.7957 14.0815 31.7965 14.0815 36.7319C14.0815 41.6672 18.1238 45.6681 23.1102 45.6681Z" stroke="#002B51" stroke-width="1.38105"/>
<path d="M23.0755 39.4805H23.1446C26.1955 39.4805 28.6688 41.9537 28.6688 45.0047V49.1005H17.5513V45.0047C17.5513 41.9537 20.0245 39.4805 23.0755 39.4805Z" fill="#B9E8FE" stroke="#002B51" stroke-width="1.38105" stroke-linejoin="round"/>
<path d="M23.1101 39.4805C25.1568 39.4805 26.816 37.8397 26.816 35.8158C26.816 33.7918 25.1568 32.151 23.1101 32.151C21.0635 32.151 19.4043 33.7918 19.4043 35.8158C19.4043 37.8397 21.0635 39.4805 23.1101 39.4805Z" fill="#B9E8FE" stroke="#002B51" stroke-width="1.38105"/>
</g>
</svg>
