<svg width="50" height="50" viewBox="0 0 50 50" fill="none" xmlns="http://www.w3.org/2000/svg">
<path d="M25 50C38.8071 50 50 38.8071 50 25C50 11.1929 38.8071 0 25 0C11.1929 0 0 11.1929 0 25C0 38.8071 11.1929 50 25 50Z" fill="#DCF3FE"/>
<path d="M34.201 22.8569C34.201 27.8819 34.201 31.1673 34.201 32.7129C34.201 35.0314 29.5135 37.5216 25.3468 37.5216C21.1802 37.5216 16.4927 35.0314 16.4927 32.7129C16.4927 31.1673 16.4927 27.8819 16.4927 22.8569" fill="white"/>
<path d="M34.201 22.8569C34.201 27.8819 34.201 31.1673 34.201 32.7129C34.201 35.0314 29.5135 37.5216 25.3468 37.5216C21.1802 37.5216 16.4927 35.0314 16.4927 32.7129C16.4927 31.1673 16.4927 27.8819 16.4927 22.8569" stroke="#002B51" stroke-width="0.833333" stroke-linejoin="round"/>
<path d="M16.4927 29.7743C19.1161 32.3568 22.0675 33.648 25.3468 33.648C28.6262 33.648 31.5776 32.3568 34.201 29.7743C34.201 30.1877 34.201 31.1673 34.201 32.713C34.201 35.0315 29.5135 37.5217 25.3468 37.5217C21.1802 37.5217 16.4927 35.0315 16.4927 32.713C16.4927 31.1673 16.4927 30.1877 16.4927 29.7743Z" fill="#B9E8FE" stroke="#002B51" stroke-width="0.833333"/>
<path d="M11.5122 34.7547V28.6674C11.5122 28.0562 12.1316 27.5607 12.8957 27.5607C13.6597 27.5607 14.2791 28.0562 14.2791 28.6674V34.7547" stroke="#002B51" stroke-width="0.833333" stroke-linecap="round"/>
<path d="M11.5122 30.3276V28.6674C11.5122 28.0562 12.1316 27.5607 12.8957 27.5607C13.6597 27.5607 14.2791 28.0562 14.2791 28.6674V30.3276H11.5122Z" fill="#B9E8FE" stroke="#002B51" stroke-width="0.833333" stroke-linejoin="round"/>
<path d="M12.8955 34.7547V30.3276" stroke="#002B51" stroke-width="0.833333" stroke-linecap="round"/>
<path d="M12.8955 27.5607V20.3667" stroke="#002B51" stroke-width="0.833333" stroke-linecap="round"/>
<path d="M25.347 13.1727L10.959 20.3667L25.347 27.5608L39.735 20.3667L25.347 13.1727Z" fill="white" stroke="#002B51" stroke-width="0.833333" stroke-linecap="round" stroke-linejoin="round"/>
</svg>
