<svg width="50" height="50" viewBox="0 0 50 50" fill="none" xmlns="http://www.w3.org/2000/svg">
<path d="M25 50C38.8071 50 50 38.8071 50 25C50 11.1929 38.8071 0 25 0C11.1929 0 0 11.1929 0 25C0 38.8071 11.1929 50 25 50Z" fill="#DCF3FE"/>
<path fill-rule="evenodd" clip-rule="evenodd" d="M18.7617 17.8239L25.4983 24.9416L30.7509 19.8602L32.7449 17.8239V14.9935L30.7509 12.8526H28.3181L26.5972 13.1186L25.7533 14.2321L24.2033 12.8526L21.7582 12.6161L19.2561 14.2321L18.7617 16.268V17.8239Z" fill="#B9E8FE"/>
<path fill-rule="evenodd" clip-rule="evenodd" d="M28.101 33.7922L28.8525 30.8526L31.1197 28.7107L34.2627 26.5622L37.2531 23.5644L38.1598 22.3859V18.7788V17.5691L39.8849 16.8672L41.2887 17.9438V21.2461V26.5622V29.2454L37.2531 33.2413L34.6948 35.6652V38.6078H27.7544L28.101 33.7922Z" fill="white"/>
<path fill-rule="evenodd" clip-rule="evenodd" d="M23.1026 33.7922L22.3511 30.8526L20.0839 28.7107L16.941 26.5622L13.9506 23.5644L13.0438 22.3859V18.7788V17.5691L11.3187 16.8672L9.91495 17.9438V21.2461V26.5622V29.2454L13.9506 33.2413L16.5088 35.6652V38.6078H23.4492L23.1026 33.7922Z" fill="white"/>
<path d="M25.6875 25.8124L25.7455 25.7544L25.8034 25.8124L32.0589 19.5542C33.7862 17.8261 33.7862 15.0244 32.0589 13.296C31.1953 12.4321 30.063 12 28.9312 12C27.7994 12 26.6671 12.4321 25.8035 13.296L25.7456 13.354L25.6876 13.296C24.8241 12.4321 23.6917 12 22.5599 12C21.4281 12 20.2958 12.4321 19.4322 13.296C17.7049 15.0241 17.7049 17.8258 19.4322 19.5542L25.6875 25.8124ZM24.8972 14.0873L25.7452 14.9357L26.5933 14.0873C27.2176 13.4627 28.048 13.1187 28.9304 13.1187C29.8134 13.1187 30.6435 13.4629 31.2676 14.0873C31.892 14.7119 32.2358 15.5427 32.2358 16.4255C32.2358 17.3089 31.8917 18.1393 31.2676 18.7637L25.8035 24.2315L25.7456 24.1736L25.6876 24.2315L20.2225 18.764C18.9337 17.4746 18.9337 15.3765 20.2225 14.0871C20.8469 13.4625 21.6773 13.1185 22.5597 13.1185C23.4429 13.1188 24.2733 13.4625 24.8973 14.0874L24.8972 14.0873Z" fill="#002B51"/>
<path d="M31.2584 28.0462C30.0809 28.6939 28.9688 29.3058 28.2413 30.8027C27.6082 32.0985 27.3356 33.6542 27.3828 35.699L27.223 38.9836H28.3418L28.4998 35.7329C28.5006 35.7194 28.5006 35.7059 28.5001 35.6923C28.4546 33.8238 28.6915 32.4264 29.2452 31.2925C29.818 30.114 30.691 29.6336 31.7962 29.0261C32.0351 28.8946 32.2807 28.7595 32.5314 28.6126C33.7087 27.9219 34.7131 26.8761 35.5991 25.9537C35.7739 25.7719 35.9457 25.5931 36.1149 25.4207C36.3046 25.2274 37.1373 24.4575 37.4594 24.1609C37.8022 23.8182 38.4072 23.8182 38.75 24.1609C39.1071 24.5182 39.1079 25.0984 38.7523 25.4544L33.9988 30.2104C33.8158 30.3935 33.7826 30.6783 33.9179 30.8987C33.9531 30.9561 34.0101 31.0424 34.103 31.1356C34.321 31.3537 34.675 31.3537 34.893 31.1356C35.0043 31.0248 35.0587 30.8782 35.0566 30.7329L39.5421 26.2452C40.3336 25.4533 40.3329 24.1639 39.5398 23.371C39.2833 23.1143 38.967 22.943 38.6242 22.8528V18.5879C38.6242 17.9704 39.0647 17.4446 39.6276 17.3912C39.9425 17.3634 40.2455 17.4627 40.4807 17.6759C40.7129 17.8876 40.8467 18.1869 40.8467 18.4974V28.2684C40.8467 28.5345 40.7132 28.7692 40.5105 28.9117L40.5593 28.9605C40.5583 28.9615 40.557 28.9628 40.556 28.9641L35.1894 34.3338C34.9867 34.5366 34.8034 34.7143 34.6112 34.8338C34.4695 34.9224 34.3751 35.0693 34.3531 35.2348L33.8694 38.9836H34.9837L35.4291 35.625C35.6251 35.4738 35.8023 35.3017 35.9799 35.1242L41.3468 29.755C41.4979 29.6038 41.6541 29.4475 41.7986 29.2685C41.9209 29.1173 41.9507 28.9217 41.8964 28.7491C41.9369 28.5948 41.9655 28.436 41.9655 28.269V18.498C41.9655 17.8733 41.6988 17.2722 41.2344 16.8498C40.7711 16.4277 40.1467 16.2193 39.5244 16.2788C38.3941 16.3858 37.5084 17.4001 37.5084 18.5886V22.8755C37.198 22.97 36.9134 23.1281 36.6875 23.3549C36.6418 23.3965 35.5674 24.3848 35.3188 24.6376C35.1468 24.8125 34.9719 24.9946 34.794 25.1798C33.9172 26.0925 33.0105 27.0363 31.9675 27.6485C31.726 27.7897 31.4889 27.9197 31.2584 28.0466L31.2584 28.0462ZM16.4497 38.2155H23.1804V39H16.4497V38.2155Z" fill="#002B51"/>
<path fill-rule="evenodd" clip-rule="evenodd" d="M27.7546 38.2155H34.4853V39H27.7546V38.2155ZM15.5673 35.6252L16.0123 38.9839H17.1238V38.8629L16.6428 35.235C16.6208 35.0695 16.5264 34.9227 16.3847 34.834C16.193 34.7143 16.0097 34.5363 15.8065 34.334L10.4397 28.9648C10.4387 28.9638 10.4374 28.9625 10.4364 28.9612L10.4851 28.9125C10.2824 28.77 10.1489 28.5353 10.1489 28.2692V18.4982C10.1489 18.1874 10.2822 17.8879 10.515 17.6764C10.7228 17.4874 10.9836 17.3866 11.2596 17.3866C11.2953 17.3866 11.3313 17.3884 11.3676 17.3917C11.9304 17.4451 12.371 17.9706 12.371 18.5884L12.3707 22.8526C12.0282 22.943 11.7116 23.1144 11.4551 23.3708C10.662 24.1637 10.6614 25.4531 11.4528 26.245L15.9403 30.735C15.9403 30.8782 15.9962 31.0217 16.1059 31.1318C16.3239 31.3499 16.6823 31.3456 16.9003 31.1275C16.9848 31.0429 17.042 30.9566 17.0769 30.8989C17.2127 30.6785 17.179 30.3938 16.996 30.2107L12.2426 25.4547C11.887 25.0989 11.8875 24.5185 12.2449 24.1612C12.5877 23.8185 13.1755 23.8022 13.5528 24.1778C13.8576 24.458 14.6905 25.2279 14.8804 25.4214C15.0494 25.5936 15.2212 25.7721 15.396 25.9541C16.2823 26.8768 17.2865 27.9223 18.4645 28.6136C18.7144 28.7599 18.96 28.8948 19.1989 29.0265C20.3039 29.6343 21.1771 30.1147 21.7502 31.2943C22.3036 32.4271 22.5402 33.8245 22.4948 35.6931C22.4946 35.7066 22.4948 35.7201 22.4951 35.7337L22.6666 38.9843H23.7722L23.6126 35.6997C23.6601 33.6555 23.3872 32.0993 22.7549 30.8045C22.0272 29.306 20.915 28.6946 19.7375 28.047C19.507 27.92 19.2701 27.7901 19.0291 27.6491C17.9851 27.0367 17.0787 26.0928 16.2019 25.1801C16.0239 24.995 15.8491 24.8129 15.6776 24.6382C15.4292 24.3852 14.3543 23.3972 14.3257 23.3716C14.0888 23.1346 13.7998 22.9724 13.4877 22.8769L13.4879 18.5882C13.4879 17.3999 12.6024 16.3854 11.4718 16.2783C10.8488 16.2173 10.2252 16.4272 9.76186 16.8494C9.29754 17.2725 9.03076 17.8731 9.03076 18.4983V28.2693C9.03076 28.4363 9.05884 28.5952 9.09968 28.7492C9.04557 28.9215 9.07543 29.1174 9.19745 29.2686C9.34244 29.4479 9.49815 29.6044 9.64926 29.7551L15.0161 35.1243C15.194 35.3025 15.3712 35.4746 15.5672 35.6253L15.5673 35.6252Z" fill="#002B51"/>
</svg>
