<svg width="50" height="50" viewBox="0 0 50 50" fill="none" xmlns="http://www.w3.org/2000/svg">
<path d="M25 50C38.8071 50 50 38.8071 50 25C50 11.1929 38.8071 0 25 0C11.1929 0 0 11.1929 0 25C0 38.8071 11.1929 50 25 50Z" fill="#DCF3FE"/>
<path d="M25.1011 9.98095V6" stroke="#002B51" stroke-width="0.7371" stroke-linecap="round"/>
<path d="M29.5593 11.1446L31.6027 7.697" stroke="#002B51" stroke-width="0.7371" stroke-linecap="round"/>
<path d="M32.823 14.3238L36.3623 12.3333" stroke="#002B51" stroke-width="0.7371" stroke-linecap="round"/>
<path d="M17.3787 14.3239L13.8394 12.3334" stroke="#002B51" stroke-width="0.7371" stroke-linecap="round"/>
<path d="M20.6426 11.1446L18.5991 7.69702" stroke="#002B51" stroke-width="0.7371" stroke-linecap="round"/>
<path d="M25.2246 25.4223C28.7812 25.4223 31.6645 22.6137 31.6645 19.1492C31.6645 15.6847 28.7812 12.8762 25.2246 12.8762C21.6679 12.8762 18.7847 15.6847 18.7847 19.1492C18.7847 22.6137 21.6679 25.4223 25.2246 25.4223Z" fill="white" stroke="#002B51" stroke-width="0.7371" stroke-linejoin="round"/>
<path d="M25.2248 23.9746C27.9607 23.9746 30.1786 21.8142 30.1786 19.1492C30.1786 16.4843 27.9607 14.3239 25.2248 14.3239C22.4889 14.3239 20.271 16.4843 20.271 19.1492C20.271 21.8142 22.4889 23.9746 25.2248 23.9746Z" fill="#B9E8FE" stroke="#002B51" stroke-width="0.7371" stroke-linejoin="round"/>
<path d="M27.7811 21.3207C27.616 20.8382 27.4509 20.3557 27.2857 19.8731C28.2765 17.2192 26.6976 16.254 25.3042 16.254C24.5611 16.254 23.0353 16.4953 23.0353 18.1842C23.0353 18.4255 22.0445 20.1143 22.2922 20.1143C22.4573 20.1143 22.705 20.1143 23.0353 20.1143C23.0353 21.2403 23.5306 21.7229 24.5214 21.562" stroke="#002B51" stroke-width="0.7371" stroke-linecap="round" stroke-linejoin="round"/>
<path d="M20.271 43.7588H30.1786" stroke="#002B51" stroke-width="0.7371" stroke-linecap="round"/>
<path d="M21.0142 34.8318L25.2249 38.9334" stroke="#002B51" stroke-width="0.7371" stroke-linecap="round"/>
<path d="M25.2246 24.9397V43.7587" stroke="#002B51" stroke-width="0.7371" stroke-linecap="round"/>
<path d="M27.7015 33.4281L25.2246 36.0821" stroke="#002B51" stroke-width="0.7371" stroke-linecap="round" stroke-linejoin="round"/>
<path d="M10.74 24.6914C10.2409 29.7968 10.887 33.2452 12.6783 35.0365C15.3654 37.7235 18.8745 37.0293 20.9763 34.9276C23.078 32.8259 23.7722 29.3167 21.0852 26.6297C19.2939 24.8383 15.8455 24.1922 10.74 24.6914Z" fill="white" stroke="#002B51" stroke-width="0.7371" stroke-linejoin="round"/>
<path d="M10.7402 24.6914C15.6877 29.6389 19.0998 33.051 20.9764 34.9276C23.0782 32.8259 23.7724 29.3167 21.0854 26.6297C19.294 24.8384 15.8457 24.1923 10.7402 24.6914Z" fill="#B9E8FE" stroke="#002B51" stroke-width="0.7371" stroke-linejoin="round"/>
<path d="M19.1883 32.8769L19.5021 28.7246" stroke="#002B51" stroke-width="0.7371" stroke-linecap="round"/>
<path d="M16.5298 30.4812L12.3169 30.4717" stroke="#002B51" stroke-width="0.7371" stroke-linecap="round"/>
<path d="M40.4731 18.9065C33.636 18.7175 29.1094 19.8976 26.8934 22.4468C23.5694 26.2707 24.8192 30.8736 27.8101 33.4736C30.801 36.0736 35.5331 36.6706 38.8571 32.8467C41.0732 30.2975 41.6118 25.6507 40.4731 18.9065Z" fill="white" stroke="#002B51" stroke-width="0.7371" stroke-linejoin="round"/>
<path d="M40.4731 18.9065C34.3527 25.9473 30.1317 30.803 27.8102 33.4736C30.8011 36.0736 35.5332 36.6706 38.8572 32.8467C41.0732 30.2975 41.6119 25.6507 40.4731 18.9065Z" fill="#B9E8FE" stroke="#002B51" stroke-width="0.7371" stroke-linejoin="round"/>
<path d="M30.3713 30.9048L35.9235 30.9359" stroke="#002B51" stroke-width="0.7371" stroke-linecap="round"/>
<path d="M33.3103 27.1461L32.9312 21.5416" stroke="#002B51" stroke-width="0.7371" stroke-linecap="round"/>
</svg>
