<svg width="100" height="100" viewBox="0 0 100 100" fill="none" xmlns="http://www.w3.org/2000/svg">
<path d="M50 100C77.6142 100 100 77.6142 100 50C100 22.3858 77.6142 0 50 0C22.3858 0 0 22.3858 0 50C0 77.6142 22.3858 100 50 100Z" fill="#DCF3FE"/>
<path d="M80.8956 51.5504C81.6144 42.7898 78.6226 33.7821 71.9203 27.0797C59.8141 14.9735 40.1859 14.9735 28.0797 27.0797C21.5077 33.6517 18.5034 42.4403 19.0667 51.0389" stroke="#002B51" stroke-width="1.5" stroke-linecap="round" stroke-linejoin="round"/>
<path d="M27.75 37.5625C27.75 40.301 27.75 42.194 27.75 43.2414C27.75 44.8125 24.5735 46.5 21.75 46.5C18.9265 46.5 15.75 44.8125 15.75 43.2414C15.75 42.194 15.75 40.301 15.75 37.5625" fill="white"/>
<path d="M27.75 37.5625C27.75 40.301 27.75 42.194 27.75 43.2414C27.75 44.8125 24.5735 46.5 21.75 46.5C18.9265 46.5 15.75 44.8125 15.75 43.2414C15.75 42.194 15.75 40.301 15.75 37.5625" stroke="#002B51" stroke-width="1.5" stroke-linejoin="round"/>
<path d="M11 41.5C11 41.0858 11.4197 40.75 11.9375 40.75C12.4553 40.75 12.875 41.0858 12.875 41.5V45.625H11V41.5Z" fill="white" stroke="#002B51" stroke-width="1.5" stroke-linecap="round" stroke-linejoin="round"/>
<path d="M21.75 31L10.75 35.875L21.75 40.75L32.75 35.875L21.75 31Z" fill="white" stroke="#002B51" stroke-width="1.5" stroke-linecap="round" stroke-linejoin="round"/>
<path d="M11.9375 40.75V35.875" stroke="#002B51" stroke-width="1.5" stroke-linecap="round"/>
<path d="M72 36.6805L78.3699 31.5113C78.7371 31.2133 79.2629 31.2133 79.6301 31.5113L86 36.6805V45C86 45.5523 85.5523 46 85 46H73C72.4477 46 72 45.5523 72 45V36.6805Z" fill="white" stroke="#002B51" stroke-width="1.5" stroke-linecap="round"/>
<path d="M70.5 38L72 36.6805L78.3699 31.5113C78.7371 31.2133 79.2629 31.2133 79.6301 31.5113L86 36.6805L87.5 38" stroke="#002B51" stroke-width="1.5" stroke-linecap="round"/>
<path d="M82 46V41.4286C82 39.535 80.6569 38 79 38C77.3431 38 76 39.535 76 41.4286V46" stroke="#002B51" stroke-width="1.5"/>
<path d="M47.4974 12.2596C51.2425 12.1256 54.848 13.4144 56.6753 15.9965C58.898 16.4076 60.7834 16.9984 62.3339 17.7617C63.1861 19.9172 63.1228 20.6081 63.0416 20.9148C62.9423 21.2899 62.565 21.863 61.7805 22.5777L38.4711 22.7546C37.91 20.2599 38.0308 19.1673 38.0308 18.5345C37.7543 17.9705 37.625 17.6617 37.625 17.317C39.9108 13.9538 43.7392 12.394 47.4974 12.2596Z" fill="white" stroke="#002B51" stroke-width="1.5" stroke-linejoin="round"/>
<path d="M56.875 16C54.6083 16.1494 49.4667 16.5 43.375 16.5C42.2417 16.0022 41.2417 15.5022 40.375 15" fill="white"/>
<path d="M56.875 16C54.6083 16.1494 49.4667 16.5 43.375 16.5C42.2417 16.0022 41.2417 15.5022 40.375 15" stroke="#002B51" stroke-width="1.5"/>
<path d="M57.375 19.25C58.1344 19.25 58.8219 19.5578 59.3195 20.0555C59.8172 20.5531 60.125 21.2406 60.125 22C60.125 22.7594 59.8172 23.4469 59.3195 23.9445C58.8219 24.4422 58.1344 24.75 57.375 24.75C56.6156 24.75 55.9281 24.4422 55.4305 23.9445C54.9328 23.4469 54.625 22.7594 54.625 22C54.625 21.2406 54.9328 20.5531 55.4305 20.0555C55.9281 19.5578 56.6156 19.25 57.375 19.25Z" fill="white" stroke="#002B51" stroke-width="1.5"/>
<path d="M43.375 19.25C44.1344 19.25 44.8219 19.5578 45.3195 20.0555C45.8172 20.5531 46.125 21.2406 46.125 22C46.125 22.7594 45.8172 23.4469 45.3195 23.9445C44.8219 24.4422 44.1344 24.75 43.375 24.75C42.6156 24.75 41.9281 24.4422 41.4305 23.9445C40.9328 23.4469 40.625 22.7594 40.625 22C40.625 21.2406 40.9328 20.5531 41.4305 20.0555C41.9281 19.5578 42.6156 19.25 43.375 19.25Z" fill="white" stroke="#002B51" stroke-width="1.5"/>
<path d="M83.7786 56.0038C85.4364 57.4449 85.6121 59.957 84.171 61.6147C84.166 61.6204 84.161 61.6261 84.156 61.6318L74.8454 72.2197C72.6571 74.7081 68.8659 74.9514 66.3775 72.7632C66.239 72.6414 66.1062 72.5132 65.9795 72.3792L62.4649 68.6612L62.4649 64.2502L66.4999 61.1612L70.4999 65.1612L78.1329 56.3961C79.5841 54.7297 82.1109 54.5541 83.7786 56.0038Z" fill="white" stroke="#002B51" stroke-width="1.5" stroke-linejoin="round"/>
<path d="M16.7233 56.0038C15.0656 57.4449 14.8899 59.957 16.331 61.6147C16.3359 61.6204 16.3409 61.6261 16.3459 61.6318L25.6566 72.2197C27.8448 74.7081 31.636 74.9514 34.1244 72.7632C34.263 72.6414 34.3958 72.5132 34.5225 72.3792L38.0371 68.6612L38.0371 64.2502L34.0001 61.1612L30.002 65.1612L22.3691 56.3961C20.9179 54.7297 18.391 54.5541 16.7233 56.0038Z" fill="white" stroke="#002B51" stroke-width="1.5" stroke-linejoin="round"/>
<path d="M43.5953 51.5H56.4047C60.781 51.5 64.8103 53.8824 66.9193 57.717L69 61.5L62.5 66.5V63.5675V84H37.5568V63.5675V66.5L31 61.5L33.0807 57.717C35.1897 53.8824 39.219 51.5 43.5953 51.5Z" fill="#B9E8FE" stroke="#002B51" stroke-width="1.5" stroke-linejoin="round"/>
<path d="M50 55C56.0751 55 61 50.0751 61 44C61 37.9249 56.0751 33 50 33C43.9249 33 39 37.9249 39 44C39 50.0751 43.9249 55 50 55Z" fill="white" stroke="#002B51" stroke-width="1.5"/>
</svg>
