<svg width="24" height="24" viewBox="0 0 24 24" fill="none" xmlns="http://www.w3.org/2000/svg">
<path fill-rule="evenodd" clip-rule="evenodd" d="M2.992 4C2.455 4 2 4.448 2 5.001V18.999C2 19.556 2.444 20 2.992 20H21.008C21.545 20 22 19.552 22 18.999V5.001C22 4.445 21.556 4 21.008 4H2.992ZM20.5 5.5V18.5H3.5V5.5H20.5ZM17.47 6.4695L12 11.9395L6.53 6.4695C6.237 6.1765 5.763 6.1765 5.47 6.4695C5.177 6.7625 5.177 7.2375 5.47 7.5305L11.47 13.5305C11.763 13.8235 12.237 13.8235 12.53 13.5305L18.53 7.5305C18.823 7.2375 18.823 6.7625 18.53 6.4695C18.237 6.1765 17.763 6.1765 17.47 6.4695ZM15.4697 13.4693C15.1767 13.7623 15.1767 14.2373 15.4697 14.5303L18.2977 17.3583C18.5907 17.6513 19.0657 17.6513 19.3587 17.3583C19.6517 17.0653 19.6517 16.5913 19.3587 16.2983L16.5307 13.4693C16.2377 13.1763 15.7627 13.1763 15.4697 13.4693ZM8.3589 14.5303C8.6519 14.2373 8.6519 13.7623 8.3589 13.4693C8.0659 13.1763 7.5909 13.1763 7.2979 13.4693L4.4699 16.2983C4.1769 16.5913 4.1769 17.0653 4.4699 17.3583C4.7629 17.6513 5.2369 17.6513 5.5299 17.3583L8.3589 14.5303Z" fill="#187ABA"/>
</svg>
