<svg width="70" height="12" viewBox="0 0 70 12" fill="none" xmlns="http://www.w3.org/2000/svg">
<path fill-rule="evenodd" clip-rule="evenodd" d="M49.0423 5.71189V7.15538C49.0012 7.65363 48.0697 8.25703 47.3098 8.21413C46.8914 8.19103 46.4853 7.85337 46.4435 7.29991C46.3729 6.37468 47.0689 5.99061 48.6213 5.82012C48.7284 5.81022 48.9389 5.77195 49.0423 5.71189ZM26.8085 5.71189V7.15538C26.7676 7.65385 25.8361 8.25703 25.076 8.21413C24.6569 8.19125 24.2527 7.85337 24.2098 7.29991C24.1403 6.37469 24.8355 5.99061 26.3874 5.82012C26.4954 5.81022 26.7044 5.77195 26.8085 5.71189ZM62.1444 3.70285C63.1644 3.70285 63.6204 4.24223 63.6242 5.41119H60.6284C60.7061 4.24311 61.1954 3.70285 62.1444 3.70285ZM19.9388 3.70285C20.441 3.70285 20.8821 3.91996 21.2984 4.43669V7.15538C21.0678 7.81135 20.408 8.19015 19.9388 8.19015C19.0207 8.19015 18.3867 7.61843 18.3867 5.90437C18.3867 4.46309 18.9556 3.70285 19.9388 3.70285ZM10.7588 3.69075C11.7174 3.69075 12.2869 4.53194 12.2869 5.94045C12.2869 7.34918 11.7174 8.19015 10.7588 8.19015C9.80204 8.19015 9.23092 7.34918 9.23092 5.94045C9.23092 4.53194 9.80204 3.69075 10.7588 3.69075ZM65.1041 3.10143L67.0892 8.75549V8.80367C66.9706 9.34569 66.6276 10.0144 66.3192 10.2232C66.047 10.408 65.752 10.4275 65.5252 10.4275C65.4156 10.4275 65.1895 10.3908 65.092 10.3675V11.0532C65.2152 11.0835 65.4994 11.1374 65.6816 11.1374C66.106 11.1374 66.4637 11.0314 66.7644 10.8125C67.1244 10.5509 67.5232 9.8688 67.7148 9.28476L69.6999 3.10143H68.8338L67.5344 7.48029L67.5223 7.57664L67.4984 7.48029L65.9702 3.10143H65.1041ZM17.1113 3.02928C16.208 3.02928 15.6727 3.37926 15.2105 4.20813V4.14808V3.11331H14.3202V8.80367H15.2105V5.57947C15.4303 4.40831 16.0505 3.85925 17.1113 3.85925V3.02928ZM53.9873 3.00508C53.4063 3.00508 52.8147 3.30535 52.3148 3.87135V3.11331H51.4245V8.81555H52.3148V4.58099C52.6182 4.25719 53.296 3.71495 53.9149 3.71495C54.5335 3.71495 54.8052 4.01895 54.8052 4.70132V8.81555H55.6956V4.67734C55.6956 3.44525 54.8193 3.00508 53.9873 3.00508ZM47.8634 3.00508C46.5995 3.00508 46.0011 3.76246 45.7459 4.23211L46.4556 4.60519C46.5555 4.33682 46.9138 3.71495 47.8752 3.71495C48.6334 3.71495 49.0184 4.04953 49.0184 4.71342V4.918C49.0184 4.918 49.012 4.98003 48.9942 5.00203C48.9664 5.03767 48.8991 5.0667 48.7055 5.08628C47.644 5.20441 46.9385 5.37907 46.4195 5.71189C45.8565 6.07398 45.5052 6.5808 45.5052 7.27571C45.5052 7.76956 45.7439 8.19059 46.0585 8.49086C46.3511 8.76737 46.7497 8.91102 47.1895 8.924C48.1258 8.95391 48.7436 8.56389 49.0423 8.1059C49.0659 8.42047 49.1779 8.60041 49.4273 8.73152C49.6608 8.85624 50.0444 8.83161 50.2094 8.79157V8.19015C50.0112 8.18025 49.8845 8.08588 49.8845 7.84127V5.08628V4.72552C49.8845 4.15688 49.6498 3.69053 49.2227 3.39004C48.8707 3.14059 48.3914 3.00508 47.8634 3.00508ZM31.7534 3.00508C31.1739 3.00508 30.581 3.30535 30.081 3.87135V3.11331H29.1909V8.81555H30.081V4.58099C30.3839 4.25741 31.0631 3.71495 31.6813 3.71495C32.301 3.71495 32.5716 4.01895 32.5716 4.70132V8.81555H33.4619V4.67734C33.4619 3.44525 32.5857 3.00508 31.7534 3.00508ZM25.6295 3.00508C24.3652 3.00508 23.7663 3.76246 23.512 4.23211L24.2219 4.60519C24.3214 4.33682 24.6802 3.71495 25.6416 3.71495C26.3997 3.71495 26.7845 4.04953 26.7845 4.71342V4.918C26.7845 4.918 26.7907 4.98003 26.7724 5.00203C26.7445 5.03767 26.6646 5.0667 26.4717 5.08628C25.4104 5.20463 24.7048 5.37907 24.1859 5.71189C23.6224 6.07398 23.2713 6.5808 23.2713 7.27571C23.2713 7.76956 23.5105 8.19081 23.8248 8.49086C24.1172 8.76737 24.5156 8.91102 24.9559 8.924C25.8928 8.95391 26.5097 8.56389 26.8085 8.1059C26.8318 8.42047 26.9447 8.60041 27.1935 8.73152C27.4273 8.85624 27.811 8.83161 27.9756 8.79157V8.19015C27.7771 8.18025 27.6509 8.08588 27.6509 7.84127V5.08628V4.72552C27.6509 4.15688 27.4276 3.69053 27.001 3.39004C26.6494 3.14059 26.1579 3.00508 25.6295 3.00508ZM19.8787 3.00508C18.8742 3.00508 17.4484 3.68107 17.4484 5.95255C17.4484 8.15804 18.8698 8.8998 19.8305 8.8998C20.3913 8.8998 20.9008 8.58919 21.2502 8.14198L21.2984 8.118V9.20051C21.2984 9.96009 20.641 10.4275 19.9388 10.4275C19.2559 10.4275 18.6515 10.2973 18.1581 10.0668V10.8367C18.5737 11.0147 19.2499 11.1253 19.8305 11.1253C21.4108 11.1253 22.1645 10.2555 22.1645 8.99615V3.11331H21.5027L21.3102 3.71495C20.9835 3.28929 20.5561 3.00508 19.8787 3.00508ZM62.1202 2.9932C61.7399 2.9932 61.3859 3.06293 61.0856 3.19756C60.7917 3.32999 60.5307 3.5295 60.3277 3.7871C59.924 4.2926 59.6899 5.04316 59.6899 5.95255C59.6899 6.96444 59.981 7.73656 60.5081 8.25021C61.0645 8.79311 61.7731 8.8998 62.2648 8.8998C63.5421 8.8998 64.1689 8.20885 64.4303 7.57664L63.7205 7.22775C63.548 7.61271 63.1514 8.20203 62.2648 8.20203C61.7579 8.20203 61.3434 7.99459 61.0495 7.61271C60.7655 7.24293 60.606 6.73127 60.6044 6.12083H64.5024V5.57947C64.5024 4.64435 64.2536 3.94724 63.7927 3.52247C63.4004 3.1617 62.85 2.9932 62.1202 2.9932ZM10.7588 2.9811C10.0093 2.9811 9.3737 3.28313 8.93018 3.84715C8.51834 4.37378 8.2924 5.11752 8.2924 5.94045C8.2924 6.76426 8.51834 7.50647 8.93018 8.03375C9.3737 8.59931 10.0093 8.8998 10.7588 8.8998C11.5117 8.8998 12.1453 8.59931 12.5877 8.03375C12.9995 7.50647 13.2252 6.76426 13.2252 5.94045C13.2252 5.11752 12.9995 4.37378 12.5877 3.84715C12.1453 3.28313 11.5117 2.9811 10.7588 2.9811ZM42.7862 1.23669V3.08933H41.9319V3.7992H42.7862V8.00955C42.7862 8.36085 42.9459 8.56609 43.1349 8.69544C43.3384 8.8316 43.6354 8.8998 44.0373 8.8998C44.2917 8.8998 44.6388 8.81555 44.6388 8.81555V8.17805C44.54 8.18421 44.4364 8.19015 44.3381 8.19015C43.7397 8.19015 43.6763 7.95654 43.6763 7.69674V3.7992H44.6388V3.08933H43.6763V1.23669H42.7862ZM0.399902 1.08028V8.80367H1.29024V1.74197L1.31444 1.76617L3.43194 8.80367H4.11768L6.24728 1.76617L6.25916 1.74197V8.80367H7.1495V1.08028H5.66978L3.78086 7.28781V7.31179L3.76876 7.28781L1.87984 1.08028H0.399902ZM38.4548 0.972055C37.7838 0.972055 37.1771 1.18257 36.7463 1.56159C36.3281 1.93115 36.0967 2.4415 36.0967 2.9932C36.0967 3.60056 36.3424 4.07527 36.8548 4.44879C37.3062 4.77853 37.9037 4.99147 38.4788 5.19451C39.4787 5.55021 40.4159 5.8749 40.4159 6.78252C40.4159 7.18618 40.2786 7.5322 40.0188 7.76912C39.7335 8.02913 39.3225 8.15408 38.7798 8.15408C37.8281 8.15408 37.1353 7.62723 36.7463 6.60214L35.8923 6.8307C36.076 7.24645 36.389 7.84633 36.8427 8.25021C37.3401 8.69632 37.9572 8.9119 38.7316 8.9119C39.6486 8.9119 40.3446 8.67542 40.8009 8.20203C41.2737 7.7095 41.3784 7.07905 41.3784 6.63822C41.3784 6.00666 41.1113 5.51897 40.5723 5.13446C40.1015 4.79679 39.4928 4.57945 38.8999 4.37664C37.9343 4.04645 37.0127 3.7321 37.0231 2.92083C37.0266 2.54269 37.1577 2.24814 37.396 2.04268C37.6391 1.83414 37.9851 1.72987 38.4309 1.72987C38.8988 1.72987 39.3159 1.86076 39.6338 2.11483C39.9262 2.34647 40.1389 2.69007 40.2355 3.07723L41.0656 2.969C40.7015 1.72746 39.8114 0.972055 38.4548 0.972055ZM57.2598 0.899902V8.00955C57.2598 8.36086 57.4435 8.5661 57.6327 8.69544C57.8357 8.83161 58.1334 8.8998 58.5349 8.8998C58.789 8.8998 59.1245 8.81555 59.1245 8.81555V8.17806C59.0237 8.18422 58.9346 8.19015 58.8359 8.19015C58.2381 8.19015 58.1499 7.95654 58.1499 7.69675V0.899902H57.2598Z" fill="#333333"/>
</svg>
