<svg width="50" height="50" viewBox="0 0 50 50" fill="none" xmlns="http://www.w3.org/2000/svg">
<path d="M25 50C38.8071 50 50 38.8071 50 25C50 11.1929 38.8071 0 25 0C11.1929 0 0 11.1929 0 25C0 38.8071 11.1929 50 25 50Z" fill="#DCF3FE"/>
<path d="M34.5 27H28.5V31H34.5V27Z" fill="white"/>
<path fill-rule="evenodd" clip-rule="evenodd" d="M28.5 34H34.5V38L33.0671 39.9763L30.8512 40.4945L28.5 38V34Z" fill="white"/>
<path d="M21 27H15V34H21V27Z" fill="white"/>
<path d="M34 31.5H29V33.5H34V31.5Z" fill="#B9E8FE"/>
<path d="M20.25 34.25H15.25V36.25H20.25V34.25Z" fill="#B9E8FE"/>
<path fill-rule="evenodd" clip-rule="evenodd" d="M15 36.5H20.5L20.1376 39.4733L18.6026 40.5L17.0685 40.4945L15.551 39.4733L15 36.5Z" fill="white"/>
<path d="M33.25 22.5H30.25V26.5H33.25V22.5Z" fill="#B9E8FE"/>
<path d="M19.25 22.5H16.25V26.5H19.25V22.5Z" fill="#B9E8FE"/>
<path fill-rule="evenodd" clip-rule="evenodd" d="M14.9999 13.5965L17.0727 12.5491L20.1366 13.0728L22.4659 16.1131L21.8665 20.3023L19.1139 22.1256L15.5508 21.7071L13.5033 19.6467L13.2388 16.9021L13.5033 15.0802L14.9999 13.5965Z" fill="white"/>
<path fill-rule="evenodd" clip-rule="evenodd" d="M28.2086 14.3848L26.6821 18.0403L27.7461 20.8736L29.3379 21.707L33.2502 21.9483L35.7981 21.2576L36.4853 19.6793L36.8571 16.4353L35.485 13.5964L35.0586 17.0298L33.6385 17.3373L32.9563 16.1131L32.5758 13.5964H31.2129V17.0298L29.7069 17.6461L28.2086 14.3848Z" fill="white"/>
<path d="M21.7322 21.5341C23.2868 20.019 23.2131 17.6425 23.2009 17.3988C23.2014 17.0959 23.1809 16.793 23.1395 16.4929C22.7303 13.3893 20.19 12 17.8501 12C15.5099 12 12.9695 13.3893 12.5604 16.4929C12.5213 16.7879 12.5022 17.0851 12.503 17.3827C12.503 17.4841 12.3641 19.9663 13.9717 21.5341C14.5433 22.0881 15.2659 22.4635 16.05 22.6146V26.2704H15.9681V26.2707C15.5726 26.278 15.197 26.4432 14.9259 26.7291C14.6548 27.015 14.5116 27.3976 14.5281 27.7897V37.795C14.5587 38.6533 14.9234 39.4663 15.5452 40.0633C16.1667 40.6601 16.9974 40.9944 17.8623 40.9961C18.7466 40.9961 19.5942 40.6433 20.2142 40.0171C20.8343 39.3906 21.1747 38.5431 21.1594 37.665V27.6923C21.1794 27.3307 21.0458 26.9771 20.7913 26.7175C20.5196 26.439 20.1466 26.2809 19.7563 26.2786H19.6296V22.6228C20.4217 22.4695 21.152 22.0912 21.7321 21.5341L21.7322 21.5341ZM20.1367 37.669C20.1321 38.4652 19.7089 39.2013 19.0207 39.6105C18.3327 40.0197 17.4791 40.0424 16.77 39.6703C16.0606 39.2986 15.5986 38.5856 15.5509 37.7908V36.9337H20.1366L20.1367 37.669ZM20.1367 35.9181H15.551V34.3987H20.1367V35.9181ZM19.7563 27.2896C19.8676 27.2901 19.974 27.3355 20.0508 27.4154C20.1124 27.4831 20.1435 27.5726 20.1367 27.6633V33.3829H15.551V27.7892C15.551 27.4925 15.7268 27.2814 15.9602 27.2814L19.7563 27.2896ZM17.0728 26.278V22.7358H17.3019C17.4777 22.7358 17.6621 22.7358 17.8501 22.7114C18.1007 22.7256 18.3521 22.7256 18.6026 22.7114V26.2536L17.0728 26.278ZM18.8686 21.6959H16.8231C16.0221 21.6582 15.2607 21.3385 14.6755 20.7942C13.3991 19.5755 13.5055 17.443 13.5055 17.3942C13.5049 17.1321 13.5215 16.87 13.5546 16.6101C13.8859 14.1118 15.9396 12.9988 17.8336 12.9988C19.7278 12.9988 21.7855 14.1157 22.1125 16.6101H22.1128C22.1459 16.87 22.1622 17.1321 22.1619 17.3942V17.4226C22.1619 17.4469 22.2763 19.5472 20.9959 20.7942C20.4161 21.3345 19.6627 21.6539 18.8686 21.6959H18.8686Z" fill="#002B51"/>
<path d="M35.8957 12.8085L35.8343 12.7272V12.7275C35.6722 12.558 35.4228 12.5033 35.2042 12.5892C34.8279 12.7314 34.5088 13.1009 34.4514 16.1232C34.4449 16.4034 34.214 16.627 33.9318 16.627C33.7954 16.6267 33.6644 16.5729 33.568 16.4768C33.4735 16.3816 33.4219 16.2527 33.4247 16.1192V14.0881C33.4173 13.6858 33.2518 13.3024 32.9636 13.0194C32.6756 12.7363 32.2876 12.5762 31.8823 12.5731C31.4725 12.5725 31.0802 12.7366 30.7942 13.0279C30.5103 13.3101 30.3528 13.6935 30.3565 14.0921V16.1232C30.3542 16.4074 30.1228 16.637 29.8368 16.6392C29.5555 16.6392 29.3257 16.4151 29.3215 16.1354C29.2641 13.1092 28.9411 12.7434 28.5647 12.5972V12.5975C28.345 12.515 28.0967 12.5708 27.9346 12.7397L27.8733 12.821C27.8037 12.9307 26.1306 15.62 26.2656 18.6502V18.6499C26.2633 19.7099 26.6753 20.7295 27.415 21.4937C28.0824 22.1244 28.9351 22.5274 29.8491 22.6433V26.2991H29.7303C29.3494 26.292 28.9819 26.4385 28.7119 26.7054C28.444 26.9675 28.2962 27.3271 28.3027 27.7006V37.6936C28.295 38.5685 28.64 39.4101 29.2609 40.0313C29.8819 40.6524 30.7268 41.0012 31.6083 41C32.489 40.9938 33.3322 40.6439 33.9557 40.0261C34.5795 39.4084 34.9337 38.5722 34.9422 37.6975V27.6798C34.9359 27.3047 34.7807 26.9471 34.5102 26.6847C34.2399 26.4223 33.8764 26.2764 33.4983 26.2783H33.4084L33.4081 22.6956C34.5016 22.6531 35.5432 22.2204 36.3413 21.4768C37.0733 20.7192 37.4844 19.7115 37.491 18.6617C37.6382 15.6028 35.9648 12.9177 35.8955 12.8081L35.8957 12.8085ZM33.9361 37.6894C33.9296 38.296 33.6833 38.876 33.2501 39.304C32.8169 39.7318 32.2317 39.9732 31.6207 39.9764C31.012 39.9798 30.4276 39.7403 29.9984 39.3119C29.5692 38.8834 29.3312 38.3017 29.3378 37.6976V34.399H33.9361V37.6894ZM33.9361 33.3835H29.3378V31.852H33.9361V33.3835ZM33.5269 27.2903C33.6353 27.2903 33.7395 27.333 33.8163 27.4093C33.893 27.4855 33.9361 27.5886 33.9361 27.6966V30.8446H29.3378V27.6801C29.3327 27.5807 29.3698 27.4835 29.44 27.4121C29.5168 27.3347 29.6212 27.2908 29.7305 27.2902L33.5269 27.2903ZM30.8514 26.2787V22.7243H32.3855V26.2787H30.8514ZM35.6297 20.7827C34.9423 21.4611 33.8582 21.7696 32.3977 21.6966H31.3464C29.9145 21.7614 28.8347 21.4568 28.1432 20.7785C27.5916 20.1971 27.2843 19.4286 27.284 18.6298C27.2697 17.164 27.5856 15.7135 28.2086 14.3848C28.2494 14.7912 28.2822 15.3556 28.2984 16.1518H28.2987C28.3298 16.6794 28.6332 17.1537 29.1006 17.4065C29.5683 17.6596 30.134 17.655 30.5973 17.3949C31.0608 17.1345 31.3564 16.6557 31.3792 16.1274V14.0963C31.3792 13.8203 31.6044 13.5965 31.8823 13.5965C32.1637 13.5988 32.3931 13.8212 32.4019 14.1003V16.1314C32.4039 16.5321 32.5663 16.9157 32.8534 17.1976C33.1404 17.4793 33.5283 17.6366 33.9318 17.6343C34.3344 17.6323 34.7199 17.4748 35.0073 17.1948C35.2944 16.9149 35.4605 16.5349 35.4702 16.1354C35.4702 15.323 35.5193 14.7744 35.5601 14.3684C36.1861 15.7163 36.5021 17.1861 36.4846 18.6703C36.4795 19.4567 36.1739 20.2115 35.6297 20.7827L35.6297 20.7827Z" fill="#002B51"/>
<path d="M17.5797 14.1003C17.2975 14.1003 17.0684 14.3275 17.0684 14.6081C17.0684 14.8886 17.2975 15.1158 17.5797 15.1158C18.2543 15.1158 18.9018 15.3805 19.3806 15.8522C19.8594 16.324 20.1314 16.9647 20.1366 17.6342C20.1366 17.9148 20.3657 18.142 20.6479 18.142C20.9304 18.142 21.1593 17.9148 21.1593 17.6342C21.1584 16.6924 20.7806 15.7893 20.1095 15.1237C19.4383 14.4578 18.5285 14.0841 17.5797 14.0841V14.1003Z" fill="#002B51"/>
</svg>
